HIERARCHY
ROOT Hips
{
    OFFSET 0.000 93.594 0.000
    CHANNELS 6 Xposition Yposition Zposition Yrotation Xrotation Zrotation
    JOINT RightHip
    {
        OFFSET -9.500 -1.594 0.000
        CHANNELS 3 Yrotation Xrotation Zrotation
        JOINT RightKnee
        {
            OFFSET 0.000 -42.000 0.000
            CHANNELS 3 Yrotation Xrotation Zrotation
            JOINT RightAnkle
            {
                OFFSET 0.000 -42.000 0.000
                CHANNELS 3 Yrotation Xrotation Zrotation
                End Site
                {
                    OFFSET 0.000 -8.000 17.500
                }
            }
        }
    }
    JOINT LeftHip
    {
        OFFSET 9.500 -1.594 0.000
        CHANNELS 3 Yrotation Xrotation Zrotation
        JOINT LeftKnee
        {
            OFFSET 0.000 -42.000 0.000
            CHANNELS 3 Yrotation Xrotation Zrotation
            JOINT LeftAnkle
            {
                OFFSET 0.000 -42.000 0.000
                CHANNELS 3 Yrotation Xrotation Zrotation
                End Site
                {
                    OFFSET 0.000 -8.000 17.500
                }
            }
        }
    }
    JOINT Chest
    {
        OFFSET 0.000 14.348 0.000
        CHANNELS 3 Yrotation Xrotation Zrotation
        JOINT Chest2
        {
            OFFSET 0.000 9.746 0.000
            CHANNELS 3 Yrotation Xrotation Zrotation
            JOINT Chest3
            {
                OFFSET 0.000 10.149 0.000
                CHANNELS 3 Yrotation Xrotation Zrotation
                JOINT Chest4
                {
                    OFFSET 0.000 9.746 0.000
                    CHANNELS 3 Yrotation Xrotation Zrotation
                    JOINT Neck
                    {
                        OFFSET 0.000 10.417 0.000
                        CHANNELS 3 Yrotation Xrotation Zrotation
                        JOINT Head
                        {
                            OFFSET 0.000 9.000 0.000
                            CHANNELS 3 Yrotation Xrotation Zrotation
                            End Site
                            {
                                OFFSET 0.000 16.000 0.000
                            }
                        }
                    }
                    JOINT RightCollar
                    {
                        OFFSET -3.200 6.945 0.000
                        CHANNELS 3 Yrotation Xrotation Zrotation
                        JOINT RightShoulder
                        {
                            OFFSET -12.800 0.000 0.000
                            CHANNELS 3 Yrotation Xrotation Zrotation
                            JOINT RightElbow
                            {
OFFSET -0 -27 0.000
						CHANNELS 3 Xrotation Yrotation Zrotation
                                JOINT RightWrist
                                {
OFFSET -0 -26 0.000
						CHANNELS 3 Xrotation Yrotation Zrotation
                                    JOINT RightFinger0
                                    {
OFFSET -0.196 -2.56 3.210
						CHANNELS 3 Xrotation Yrotation Zrotation
                                        JOINT RightFinger01
                                        {
OFFSET -0 -3.788 0.000
						CHANNELS 3 Xrotation Yrotation Zrotation
                                            JOINT RightFinger0Nub
                                            {
OFFSET -0 -2.631 0.000
						CHANNELS 3 Xrotation Yrotation Zrotation
                                                End Site
                                                {
OFFSET 0 -2.256 0
                                                }
                                            }
                                        }
                                    }
                                    JOINT RightFinger1
                                    {
OFFSET -0.523 -3.316 2.035
						CHANNELS 3 Xrotation Yrotation Zrotation
                                        JOINT RightFinger11
                                        {
OFFSET 0.094 -5.366 1.028
						CHANNELS 3 Xrotation Yrotation Zrotation
                                            JOINT RightFinger12
                                            {
OFFSET -0 -3.723 0.000
						CHANNELS 3 Xrotation Yrotation Zrotation
                                                JOINT RightFinger1Nub
                                                {
OFFSET -0 -2.111 0.000
						CHANNELS 3 Xrotation Yrotation Zrotation
                                                    End Site
                                                    {
OFFSET 0 -1.857 0
                                                    }
                                                }
                                            }
                                        }
                                    }
                                    JOINT RightFinger2
                                    {
OFFSET -0.532 -3.479 0.778
						CHANNELS 3 Xrotation Yrotation Zrotation
                                        JOINT RightFinger21
                                        {
OFFSET 0.086 -5.322 0.323
						CHANNELS 3 Xrotation Yrotation Zrotation
                                            JOINT RightFinger22
                                            {
OFFSET -0 -4.062 0.000
						CHANNELS 3 Xrotation Yrotation Zrotation
                                                JOINT RightFinger2Nub
                                                {
OFFSET -0 -2.547 0.000
						CHANNELS 3 Xrotation Yrotation Zrotation
                                                    End Site
                                                    {
OFFSET 0 -2.031 0
                                                    }
                                                }
                                            }
                                        }
                                    }
                                    JOINT RightFinger3
                                    {
OFFSET -0.553 -3.461 -0.133
						CHANNELS 3 Xrotation Yrotation Zrotation
                                        JOINT RightFinger31
                                        {
OFFSET 0.023 -4.767 -0.493
						CHANNELS 3 Xrotation Yrotation Zrotation
                                            JOINT RightFinger32
                                            {
OFFSET -0 -3.541 0.000
						CHANNELS 3 Xrotation Yrotation Zrotation
                                                JOINT RightFinger3Nub
                                                {
OFFSET -0 -2.456 0.000
						CHANNELS 3 Xrotation Yrotation Zrotation
                                                    End Site
                                                    {
OFFSET 0 -1.91 0
                                                    }
                                                }
                                            }
                                        }
                                    }
                                    JOINT RightFinger4
                                    {
OFFSET -0.483 -3.251 -1.236
						CHANNELS 3 Xrotation Yrotation Zrotation
                                        JOINT RightFinger41
                                        {
OFFSET 0.023 -4.259 -1.122
						CHANNELS 3 Xrotation Yrotation Zrotation
                                            JOINT RightFinger42
                                            {
OFFSET -0 -2.835 0.000
						CHANNELS 3 Xrotation Yrotation Zrotation
                                                JOINT RightFinger4Nub
                                                {
OFFSET -0 -1.792 0.000
						CHANNELS 3 Xrotation Yrotation Zrotation
                                                    End Site
                                                    {
OFFSET 0 -1.692 0
                                                    }
                                                }
                                            }
                                        }
                                    }
                                }
                            }
                        }
                    }
                    JOINT LeftCollar
                    {
                        OFFSET 3.200 6.945 0.000
                        CHANNELS 3 Yrotation Xrotation Zrotation
                        JOINT LeftShoulder
                        {
                            OFFSET 12.800 0.000 0.000
                            CHANNELS 3 Yrotation Xrotation Zrotation
                            JOINT LeftElbow
                            {
OFFSET -0 -27 0.000
						CHANNELS 3 Xrotation Yrotation Zrotation
                                JOINT LeftWrist
                                {
OFFSET -0 -26 0.000
						CHANNELS 3 Xrotation Yrotation Zrotation
                                    JOINT LeftFinger0
                                    {
OFFSET -0.196 -2.56 3.210
						CHANNELS 3 Xrotation Yrotation Zrotation
                                        JOINT LeftFinger01
                                        {
OFFSET -0 -3.788 0.000
						CHANNELS 3 Xrotation Yrotation Zrotation
                                            JOINT LeftFinger0Nub
                                            {
OFFSET -0 -2.631 0.000
						CHANNELS 3 Xrotation Yrotation Zrotation
                                                End Site
                                                {
OFFSET 0 -2.256 0
                                                }
                                            }
                                        }
                                    }
                                    JOINT LeftFinger1
                                    {
OFFSET -0.523 -3.316 2.035
						CHANNELS 3 Xrotation Yrotation Zrotation
                                        JOINT LeftFinger11
                                        {
OFFSET 0.094 -5.366 1.028
						CHANNELS 3 Xrotation Yrotation Zrotation
                                            JOINT LeftFinger12
                                            {
OFFSET -0 -3.723 0.000
						CHANNELS 3 Xrotation Yrotation Zrotation
                                                JOINT LeftFinger1Nub
                                                {
OFFSET -0 -2.111 0.000
						CHANNELS 3 Xrotation Yrotation Zrotation
                                                    End Site
                                                    {
OFFSET 0 -1.857 0
                                                    }
                                                }
                                            }
                                        }
                                    }
                                    JOINT LeftFinger2
                                    {
OFFSET -0.532 -3.479 0.778
						CHANNELS 3 Xrotation Yrotation Zrotation
                                        JOINT LeftFinger21
                                        {
OFFSET 0.086 -5.322 0.323
						CHANNELS 3 Xrotation Yrotation Zrotation
                                            JOINT LeftFinger22
                                            {
OFFSET -0 -4.062 0.000
						CHANNELS 3 Xrotation Yrotation Zrotation
                                                JOINT LeftFinger2Nub
                                                {
OFFSET -0 -2.547 0.000
						CHANNELS 3 Xrotation Yrotation Zrotation
                                                    End Site
                                                    {
OFFSET 0 -2.031 0
                                                    }
                                                }
                                            }
                                        }
                                    }
                                    JOINT LeftFinger3
                                    {
OFFSET -0.553 -3.461 -0.133
						CHANNELS 3 Xrotation Yrotation Zrotation
                                        JOINT LeftFinger31
                                        {
OFFSET 0.023 -4.767 -0.493
						CHANNELS 3 Xrotation Yrotation Zrotation
                                            JOINT LeftFinger32
                                            {
OFFSET -0 -3.541 0.000
						CHANNELS 3 Xrotation Yrotation Zrotation
                                                JOINT LeftFinger3Nub
                                                {
OFFSET -0 -2.456 0.000
						CHANNELS 3 Xrotation Yrotation Zrotation
                                                    End Site
                                                    {
OFFSET 0 -1.91 0
                                                    }
                                                }
                                            }
                                        }
                                    }
                                    JOINT LeftFinger4
                                    {
OFFSET -0.483 -3.251 -1.236
						CHANNELS 3 Xrotation Yrotation Zrotation
                                        JOINT LeftFinger41
                                        {
OFFSET 0.023 -4.259 -1.122
						CHANNELS 3 Xrotation Yrotation Zrotation
                                            JOINT LeftFinger42
                                            {
OFFSET -0 -2.835 0.000
						CHANNELS 3 Xrotation Yrotation Zrotation
                                                JOINT LeftFinger4Nub
                                                {
OFFSET -0 -1.792 0.000
						CHANNELS 3 Xrotation Yrotation Zrotation
                                                    End Site
                                                    {
OFFSET 0 -1.692 0
                                                    }
                                                }
                                            }
                                        }
                                    }
                                }
                            }
                        }
                    }
                }
            }
        }
    }
}
MOTION

Frames: 4
Frame Time: 0.017
-16.35 91.47 33.42 177.86 -17.58 -8.64 -15.65 15.59 1.06 -0.00 24.02 0.00 -32.13 -21.80 9.97 -18.76 -0.37 15.84 0.00 31.26 0.00 -10.32 -14.14 -17.76 18.12 -8.56 6.39 4.58 -2.40 1.83 7.18 -4.37 2.86 -0.00 0.00 -0.00 -0.00 -0.00 -0.00 0.00 -0.00 0.00 1.41 -7.71 6.32 9.64 -11.13 -38.95 -19.17 33.77 19.61 -18.28 9.7 14.24 -50.04 -0 21.80 10.45 -0 -8.02 4.71 -0 0.00 0 -0 0.00 -15 -0 13.53 0 -0 9.73 0 -0 4.86 0 -0 0.00 0 -0 2.22 0 -0 2.22 0 -0 2.22 0 -0 0.00 15 -0 13.72 0 -0 13.72 0 -0 13.72 0 -0 0.00 25 -0 13.15 0 -0 13.15 0 -0 13.15 -20.51 1.50 -13.88 -29.75 -20.37 59.17 -56.13 -6.19 -48.94 -14.58 26.66 -14.87 -7.63 0 -37.58 -5.21 0 6.63 19.36 0 0.00 0.00 0 0.00 -15.00 0 -6.40 0.00 0 -5.06 0.00 0 -2.53 0.00 0 0.00 0.00 0 -12.01 0.00 0 -12.01 0.00 0 -12.01 0.00 0 0.00 15.00 0 -20.91 0.00 0 -20.91 0.00 0 -20.91 0.00 0 0.00 25.00 0 -22.16 0.00 0 -22.16 0.00 0 -22.16 
-16.40 91.51 33.41 177.72 -17.58 -8.79 -15.46 15.76 1.23 -0.00 23.68 -0.00 -32.10 -21.60 9.99 -18.36 -0.39 16.06 0.00 31.32 -0.00 -9.97 -14.19 -17.49 17.76 -8.40 6.56 4.49 -2.35 1.86 7.03 -4.29 2.92 -0.00 0.00 -0.00 -0.00 0.00 -0.00 0.00 -0.00 -0.00 1.69 -7.57 6.19 9.20 -11.29 -38.92 -20.66 32.7 20.50 -18.33 9.78 14.13 -50.01 -0 21.97 10.52 -0 -7.86 4.77 -0 0.00 0 -0 0.00 -15 -0 13.72 0 -0 9.94 0 -0 4.97 0 -0 0.00 0 -0 1.98 0 -0 1.98 0 -0 1.98 0 -0 0.00 15 -0 13.83 0 -0 13.83 0 -0 13.83 0 -0 0.00 25 -0 12.74 0 -0 12.74 0 -0 12.74 -20.06 1.04 -13.55 -29.55 -19.74 58.29 -56.18 -6.39 -48.01 -13.90 26.17 -15.61 -7.65 0 -37.68 -5.26 0 6.54 19.33 0 0.00 0.00 0 0.00 -15.00 0 -6.25 0.00 0 -4.99 0.00 0 -2.50 0.00 0 0.00 0.00 0 -11.66 0.00 0 -11.66 0.00 0 -11.66 0.00 0 0.00 15.00 0 -20.84 0.00 0 -20.84 0.00 0 -20.84 0.00 0 0.00 25.00 0 -21.74 0.00 0 -21.74 0.00 0 -21.74 
-16.35 91.34 33.49 177.50 -17.58 -8.99 -15.38 15.26 1.47 -0.00 24.66 -0.00 -32.05 -21.97 10.26 -17.63 0.08 16.19 0.00 30.99 0.00 -9.70 -14.29 -17.05 17.87 -8.46 6.71 4.51 -2.37 1.90 7.06 -4.33 2.98 -0.00 0.00 -0.00 -0.00 0.00 -0.00 0.00 -0.00 -0.00 1.18 -7.15 6.06 8.80 -11.41 -38.93 -22.1 31.74 21.44 -18.39 9.81 13.99 -50.02 -0 22.07 10.5 -0 -7.76 4.88 -0 0.00 0 -0 0.00 -15 -0 13.86 0 -0 10.09 0 -0 5.04 0 -0 0.00 0 -0 0.93 0 -0 0.93 0 -0 0.93 0 -0 0.00 15 -0 13.89 0 -0 13.89 0 -0 13.89 0 -0 0.00 25 -0 12.40 0 -0 12.40 0 -0 12.40 -20.27 1.01 -13.11 -29.51 -19.34 57.17 -56.08 -7.53 -47.76 -14.24 26.23 -15.63 -7.66 0 -37.29 -5.28 0 6.92 19.04 0 0.00 0.00 0 0.00 -15.00 0 -6.18 0.00 0 -4.09 0.00 0 -2.04 0.00 0 0.00 0.00 0 -11.33 0.00 0 -11.33 0.00 0 -11.33 0.00 0 0.00 15.00 0 -20.76 0.00 0 -20.76 0.00 0 -20.76 0.00 0 0.00 25.00 0 -21.56 0.00 0 -21.56 0.00 0 -21.56 
-16.32 91.20 33.57 177.29 -17.53 -9.22 -15.31 14.81 1.73 0.00 25.43 0.00 -31.96 -22.20 10.42 -17.04 0.44 16.36 -0.00 30.69 -0.00 -9.43 -14.52 -16.72 17.97 -8.55 6.86 4.54 -2.40 1.94 7.09 -4.39 3.05 -0.00 0.00 -0.00 -0.00 0.00 -0.00 0.00 -0.00 -0.00 0.60 -6.78 5.92 8.46 -11.44 -38.94 -23.47 30.86 22.43 -18.47 9.78 13.93 -50 -0 22.21 10.54 -0 -7.62 4.89 -0 0.00 0 -0 0.00 -15 -0 13.87 0 -0 10.14 0 -0 5.07 0 -0 0.00 0 -0 0.76 0 -0 0.76 0 -0 0.76 0 -0 0.00 15 -0 13.85 0 -0 13.85 0 -0 13.85 0 -0 0.00 25 -0 12.18 0 -0 12.18 0 -0 12.18 -20.44 0.88 -12.66 -29.48 -18.97 55.89 -56.00 -8.64 -47.59 -14.34 26.48 -15.84 -7.61 0 -36.93 -5.18 0 7.29 18.69 0 0.00 0.00 0 0.00 -15.00 0 -6.00 0.00 0 -3.16 0.00 0 -1.58 0.00 0 0.00 0.00 0 -11.06 0.00 0 -11.06 0.00 0 -11.06 0.00 0 0.00 15.00 0 -20.58 0.00 0 -20.58 0.00 0 -20.58 0.00 0 0.00 25.00 0 -21.33 0.00 0 -21.33 0.00 0 -21.33 
